<svg xmlns="http://www.w3.org/2000/svg" viewBox="0 0 238.57 238.58"><defs><style>.cls-1,.cls-2{fill:#003f88;}.cls-2{fill-rule:evenodd;}</style></defs><title>资源 3</title><g id="图层_2" data-name="图层 2"><g id="图层_1-2" data-name="图层 1"><path class="cls-1" d="M119.29,0C185,0,238.57,53.59,238.57,119.29S185,238.58,119.29,238.58,0,185,0,119.29,53.59,0,119.29,0m0,4.76C56.21,4.76,4.76,56.21,4.76,119.29S56.21,233.82,119.29,233.82s114.53-51.45,114.53-114.53S182.37,4.76,119.29,4.76"/><path class="cls-1" d="M77.39,170.13a66.49,66.49,0,0,1-17.75-22.8,65.39,65.39,0,0,1-6.28-28,65.93,65.93,0,0,1,131.86,0,65.39,65.39,0,0,1-6.29,28,66.49,66.49,0,0,1-17.75,22.8l-1.51-1.83a64.08,64.08,0,0,0,17.12-22,63.55,63.55,0,1,0-115,0,64.08,64.08,0,0,0,17.12,22Z"/><polygon class="cls-2" points="17.14 159.11 12.64 147.04 15.1 146.18 35.72 149.32 32.57 140.86 35.02 140.01 39.13 151.06 36.67 151.91 16.06 148.78 19.59 158.25 17.14 159.11"/><polygon class="cls-2" points="24.99 175.56 23.75 173.16 33.44 168.17 30.37 162.19 20.67 167.17 19.43 164.76 40.16 154.1 41.4 156.51 32.67 161 35.74 166.98 44.48 162.49 45.72 164.91 24.99 175.56"/><polygon class="cls-2" points="34.82 188.7 27.45 178.41 46.89 166.34 53.9 176.12 51.74 177.46 46.4 170 40.37 173.75 45.28 180.6 43.12 181.94 38.21 175.08 31.27 179.39 36.98 187.36 34.82 188.7"/><polygon class="cls-2" points="51.34 204.86 48.88 202.78 63.19 185.2 65.65 187.28 51.34 204.86"/><path class="cls-2" d="M62.43,212.6l2.93-6.22L61.8,203.8,56.52,209l-2.43-1.87,16.78-16.57,3.36,2.05-8.92,21.67Zm4.28-9.27,3.5-8-.33-.27-6,6.16Z"/><polygon class="cls-2" points="79.24 220.73 76.21 219.32 77.98 203.16 71.35 216.75 68.33 215.36 78.84 194.55 81.58 195.81 80.3 211.17 87.14 198.48 89.68 199.53 79.24 220.73"/><path class="cls-2" d="M94.89,225.41l-2-.65.18-1.83a3.41,3.41,0,0,1-1.81.76,4.7,4.7,0,0,1-2.28-.21,5.8,5.8,0,0,1-3.58-3.79q-1.17-3,.47-8.3c1.18-3.85,2.65-6.53,4.37-8a7.24,7.24,0,0,1,6.69-1.6c2.51.8,4.13,3.88,3.42,8.15l-3-.25c.51-1.82.24-4.67-1.54-5.25a3.9,3.9,0,0,0-4.1,1.13c-1,1.14-2,3.31-3,6.51q-1.41,4.55-.79,6.63a3.48,3.48,0,0,0,2.12,2.59,2.86,2.86,0,0,0,2.72-.41,6.16,6.16,0,0,0,2-3.33l.42-1.36L91.62,215l.73-2.33,5.87,1.91Z"/><path class="cls-2" d="M125.9,220.27a7.61,7.61,0,0,1-1.68,4.93,5.84,5.84,0,0,1-4.86,1.65c-2.19-.08-3.78-.75-4.75-2a7.73,7.73,0,0,1-1.36-5l.52-15.88,2.8.11-.52,15.87a4.73,4.73,0,0,0,.87,3.32,3.6,3.6,0,0,0,5.11.19,4.73,4.73,0,0,0,1.08-3.24l.51-15.87,2.8.1Z"/><polygon class="cls-2" points="141.82 224.5 139.32 224.89 131.46 209.73 132.65 226 129.69 226.43 127.95 203.61 131.37 203.29 137.85 213.92 136.65 202.48 139.12 202.06 141.82 224.5"/><polygon class="cls-2" points="150.34 222.12 147.42 223 141.33 201.41 144.26 200.52 150.34 222.12"/><polygon class="cls-2" points="158.23 194.75 161.93 218.59 159.04 220.01 146.41 199.77 149.19 198.6 157.97 212.41 155.54 195.92 158.23 194.75"/><polygon class="cls-2" points="181.69 208.26 171.03 214.02 159.43 194.1 169.56 188.62 170.85 190.83 163.11 195.01 166.71 201.19 173.82 197.35 175.11 199.57 168 203.41 172.14 210.52 180.4 206.05 181.69 208.26"/><path class="cls-2" d="M193.83,199.75l-2.35,2-8.25-6.84-2.14,1.94,5.58,7.59-2.34,2.45L170.66,187.7l4.36-3.12a7.27,7.27,0,0,1,4.87-1.52c4.26.51,6.08,3.38,5.88,6.71a9.75,9.75,0,0,1-.53,3.13ZM179.1,186.23c-1.73-.47-3.11.87-4.36,1.84l4.55,6c1.39-1,2-1.21,3.08-3,.46-2.18-.52-4.07-3.27-4.82"/><path class="cls-2" d="M201.2,181.21a6.55,6.55,0,0,1-2.6,11.95,7.68,7.68,0,0,1-4.52-.8l1.07-2.42a8.19,8.19,0,0,0,3.06.41c4.06-.77,3.88-5,1.52-6.74a4.26,4.26,0,0,0-3-.57c-2.74.3-4.5,2.34-7.54,2.53a5.65,5.65,0,0,1-6.2-5.07,6.75,6.75,0,0,1,1-4.71c1.76-2.77,5.5-3.14,8.23-1.53l-1.06,2.51c-1.48-.78-4.09-.78-5.07.76a3.29,3.29,0,0,0-.54,2.47,2.92,2.92,0,0,0,3.35,2.68c3-.36,5-2.79,7.87-2.7a9.45,9.45,0,0,1,4.43,1.23"/><polygon class="cls-2" points="211.25 178.26 209.54 180.37 189.89 168.04 191.61 165.94 211.25 178.26"/><polygon class="cls-2" points="201.34 153.41 199.16 157.44 217.72 168.35 216.47 170.67 197.91 159.75 195.74 163.78 193.42 162.42 199.02 152.04 201.34 153.41"/><polygon class="cls-2" points="204.74 138.07 216.06 148.19 223.62 151.43 222.7 153.98 215.69 151.26 199.57 150.89 200.35 148.31 211.6 148.49 203.63 141.16 204.74 138.07"/><path class="cls-2" d="M49.61,194.71c-2,2-3.87,3-5.61,3.09a6.8,6.8,0,0,1-6.62-6.66,5.66,5.66,0,0,1,.77-2.72L40.7,190a2.68,2.68,0,0,0-.34,1.26,3.08,3.08,0,0,0,.87,2.36,3.37,3.37,0,0,0,2.71,1.2,6.34,6.34,0,0,0,3.45-2.14l11.34-11.22,2.12,2.14Z"/><path class="cls-2" d="M88.16,190.78l-8-4.93.73-1.24,3,1.83,4.72-8.23-3-1.83.64-1.11A7.29,7.29,0,0,0,89,176.43a1.69,1.69,0,0,0,1.67-.79l1.7,1.05L86,187.74l2.88,1.79Zm23.68-5a1.76,1.76,0,0,0-.65-1.73,5,5,0,0,0-2.61-1,5.54,5.54,0,0,0-2.72.2,1.86,1.86,0,0,0-1.33,1.39,1.46,1.46,0,0,0,.28,1.25,4.2,4.2,0,0,0,1.38,1.09c.27.14.71.37,1.28.64s1.13.49,1.62.68a5.11,5.11,0,0,0,2-1.07,2.91,2.91,0,0,0,.76-1.45m-1,7.1a1.77,1.77,0,0,0-.24-1.45,5.63,5.63,0,0,0-1.83-1.32c-.3-.16-.72-.35-1.24-.57l-1.77-.75a5.25,5.25,0,0,0-2.12,1,2.93,2.93,0,0,0-1,1.64,2.37,2.37,0,0,0,.77,2.28,5,5,0,0,0,2.83,1.25,5.69,5.69,0,0,0,3.1-.31,2.39,2.39,0,0,0,1.5-1.79m-4.92,3.5a11.75,11.75,0,0,1-2.89-.72,7.28,7.28,0,0,1-2.09-1.21,4,4,0,0,1-1.13-1.55,3.25,3.25,0,0,1-.14-1.72,3.31,3.31,0,0,1,1.38-2,7.05,7.05,0,0,1,3-1.14V188a7,7,0,0,1-2.12-1.65,2.26,2.26,0,0,1-.4-1.91,3.35,3.35,0,0,1,2.39-2.39,9.73,9.73,0,0,1,4.93-.4,9.2,9.2,0,0,1,4.57,1.67,2.8,2.8,0,0,1,1.27,2.82,3,3,0,0,1-1.24,1.76,6.2,6.2,0,0,1-2.77,1.1v.05a7.78,7.78,0,0,1,2.6,1.81,2.55,2.55,0,0,1,.56,2.25,3.91,3.91,0,0,1-2.65,2.75,10.22,10.22,0,0,1-5.32.51m27.48-8.71a5.91,5.91,0,0,0-.4-2.37,3.32,3.32,0,0,0-1.12-1.41,3.75,3.75,0,0,0-1.28-.64,5.62,5.62,0,0,0-1.41-.17,4.27,4.27,0,0,0-2.81.85,3.42,3.42,0,0,0-.72,3.93,2.73,2.73,0,0,0,1.13,1,3.72,3.72,0,0,0,1.23.41,10,10,0,0,0,1.48.09,9.63,9.63,0,0,0,2-.21,9,9,0,0,0,1.85-.57c0-.1,0-.22,0-.38s0-.33,0-.53m-11-1.22a3.83,3.83,0,0,1,.54-2,5.13,5.13,0,0,1,1.47-1.58,7.07,7.07,0,0,1,2.18-1,10.07,10.07,0,0,1,2.61-.35,10.46,10.46,0,0,1,2.68.33,6.53,6.53,0,0,1,2.08,1,5.22,5.22,0,0,1,1.72,2,7.59,7.59,0,0,1,.61,3.23,9.44,9.44,0,0,1-.6,3.36,6.65,6.65,0,0,1-1.75,2.63,8.41,8.41,0,0,1-3,1.7,13.47,13.47,0,0,1-4.27.58l-1.23,0c-.43,0-.83-.09-1.21-.16v-1.84h.15a6.06,6.06,0,0,0,1.12.26,10,10,0,0,0,1.55.12,7,7,0,0,0,4.43-1.24,4.77,4.77,0,0,0,1.82-3.53,12.93,12.93,0,0,1-2.18.76,10.16,10.16,0,0,1-2.28.24,11.94,11.94,0,0,1-2.16-.18,6.76,6.76,0,0,1-2-.67A4.21,4.21,0,0,1,123,188.6a3.88,3.88,0,0,1-.59-2.16m31.14-12.21L153,189l-2.26,1.42.2-13.92-8.6,4.17-.75-1.65,10.81-5.62Z"/><path class="cls-2" d="M158.2,55.1c-1.73-.83-.5-1.14-.41-2.77.08-1.4-.82-3-.54-4,.76-2.66,4.16-1.65,6-.28a3.76,3.76,0,0,1,.88,1.55c.61,1.61,1.25,3.88-.6,5a5.94,5.94,0,0,1-5.36.46"/><path class="cls-2" d="M138.18,47.26l-.16-.12c.06-.2.13-.4.19-.57a57.91,57.91,0,0,0,6.37-2.24,7.92,7.92,0,0,0,4.19-3.5c-3.83.28-7.82,2.06-11.55,1.43a22.29,22.29,0,0,1-3.62-2.86c0-.08,0-.14,0-.2-1.64-1.74-1.41-3.42.9-3.61,3.49,1.73,9.8.47,13.61,0,.87-.16,3.31-.41,4.1-1,2-4.67,2.67-9.7,4.09-14.3,2-3.08,3.56-.28,5.24,1.92.07.31.47.74.75,1.48l.19,0c.55,1.62.64,2.32-1.06,3.31a18.3,18.3,0,0,0-3.08,7.17c2.62.26,4.71-1.59,7.66-.92a2.75,2.75,0,0,1-1.57,3.49c-2.4.51-5,.86-7.66,1.38-1.16,2.32-2.88,5.1-5.1,6.68a17,17,0,0,1-2.21,1.2,22.18,22.18,0,0,1-5.34,1.36c-5.1.17-5.1-.08-6-.16"/><path class="cls-2" d="M80.07,64.25C78,64.13,75.48,62.6,74,61.63c0-.53-.06-1.09,0-1.62,3-4.82,6-9.41,8.35-14.68.45-2.24,1.23-4.7,1.79-6.95a.36.36,0,0,1,.18-.16,1.32,1.32,0,0,1-.08-.19c.75-1.26,1.11-1.66,2.57-.64.53,1.13-1.06,3.18-1.29,4.52q0,3.59-.31,7.37a18.22,18.22,0,0,0-.66,3.26A16,16,0,0,0,83,58.4c-1,1.3-.66,3.88-1.95,5.33-.35.16-.66.34-1,.52"/><path class="cls-2" d="M99.18,39.63c-2.65.9-4.05-.47-6.06-1.42-.32-.68-.06-1.26-.19-1.75a2.56,2.56,0,0,0,.89-.81c1-.58,1.45-.68,2.61-1.22,1.35-.93,4.16-5.08,5.9-4.45,1.43,3.08-.76,7.64-3.15,9.65"/><path class="cls-2" d="M77.2,42.5c-1.33-.49-3.11-4.42-3.69-5.67-.15-2.55,2.08-3.52,4.54-2.8,2.28,1.39,3.63,1.8,3,4.73C79.84,41,79.08,41.42,77.2,42.5"/><path class="cls-2" d="M95.74,33c-.76-1.11-.1-4.4-.82-4.84a20.9,20.9,0,0,1-1.8,1.13c-1.87-.14-4.34-1.37-4.29-3.1.64-1.76.33-1.26,2.09-2.09,1.41-1.44,2.85-2.86,4.3-4.3,2.72-1.68,4.69-.62,6,2.18a14.49,14.49,0,0,1-1.08,5.94c-1.22,1.45-2.26,2.94-3.31,4.42-.39.21-.74.44-1.08.66"/><path class="cls-2" d="M76.49,31c-.83-.3-.69-.69-.57-1.37-.55-1.17-1.66-1.87-2.19-3-.45-2.27-1.15-2.89.2-4.6,1.61.06,7.33.63,7.24,3.75C80.53,27.91,78.29,30,76.49,31"/><path class="cls-2" d="M47.16,109.59c-2.47,1.71-8.43.58-7.64-3a1.58,1.58,0,0,1-.41-1.39l-.18-.1c-.63-3.74-2.65-7.29-3.75-10.81-.58-1.12-1.27-2-.83-3.19.82-.2,1.73.69,2.43,1.37.36-.08.76-1,.94-1.57-.27-2.47-.07-5.32-.42-7.84q-1-.83-1.86-1.68c-.49,1.27-2.11,5.41-3.52,3.18.39-1.7.63-4.52-.32-6.23-1.23-1.34-3-2.27-3.53-3.73.25-2,3.37-2.51,5.19-1.7,1.48.13,1.45-2.65,3.12,1.94,0,.75.76,1.22,1.58,1.64.13-.17.27-.32.4-.49a61.06,61.06,0,0,1,.09-6.17A20.9,20.9,0,0,1,34,64.23c0-2.15,2.44-3.38,4.55-4a6,6,0,0,0,.65-3.61,2.93,2.93,0,0,1,.65-1.21,4.89,4.89,0,0,1,2.14.8c1.67,2.18-1.85,8.81,1.46,9.34.67-1.12-.26-2.3-.76-3.22.19-1.65,2.73-3.71,4.52-4.35,2.66-.23,2.49,1.27,2.51,3.55.12.31.25.63.38.92,3.36,2.45,3.36,2.45,8,5.6a9.82,9.82,0,0,1,1.59,3.86l.16.09a2.06,2.06,0,0,1-.11.18c.63,1.31.66,3.46-.92,3.66-3.82-2.6-7.63-5.54-11.36-7.91a.8.8,0,0,0-.07.24c1.67,1.56,3.89,5.81,3.94,8.19a3.68,3.68,0,0,1-4.14,1.74c-.28-.41-.17-.76-.23-1.24-1.12-2-4.41-3.89-6.08-5-.64,1.3.67,5.17,1.07,6.75.07.93.12,1.88.2,2.78,1.13,1.4,2.3,2.68,3.56,4.1.46.79.93,1.59,1.42,2.4,0,.08-.07.13-.09.18.54,1.2,1.77,4.7-.51,4.71a4.76,4.76,0,0,1-.62-.41,11.56,11.56,0,0,0-3.6-4.84c-.53,1.79.15,3.68-.76,5.2a11.93,11.93,0,0,1-2.26,1.76.85.85,0,0,0-.18-.1c-.47.2-1,.33-1.1.61.64.83,1.32,1.68,2,2.51a71.31,71.31,0,0,0,7.25,10.27,2.62,2.62,0,0,1-.14,1.85"/><path class="cls-2" d="M31,94.24c-1,0-1.46-1.15-2.2-1.7-2.65-.76-4.65-1.29-5.52-3.93.11-.24.25-.47.38-.7A23.2,23.2,0,0,1,29.32,87c3.3.73,2.17,4.86,1.65,7.24"/><path class="cls-2" d="M24,86.43c-.57.42-.67.33-.94.3-.35-.62-.48-1.08-1.1-1.34-2.93-.07-6-2.27-5.42-5.25.54-.61,1.11-.24,2.23.09,2.47-.49,6.15-2,6.31,1.93-.26,1.44-.71,2.9-1.08,4.27"/><path class="cls-1" d="M175.29,90.19l-29,0c-8.45,0-12.8,8.29-16,15.81l-4.89-11,8.22-3c-4.81-4.55-19.78-7-21.76-.18L108.31,106c-2.79-6.4-6.72-15.76-15.59-15.77H63.29c3.83,6.77,7.48,9.2,21,8.62l1.77,4.66-14.84.08c4.38,8.08,6.91,8.41,18.86,8.08l2.53,5.58L81,117.64c2.51,5.71,5.14,8.15,15.16,7.69l2,5-9.29.06c3.49,5.75,5.21,8.39,12.57,7.74l2,5.39H96.9c2.79,6.21,6,6.47,10,7.09,3.55.55,4.06,7.21-.09,9.34l12.49,20.27,12.5-20.27c-4.16-2.14-3.64-8.79-.08-9.34,4-.63,7.19-.88,10-7.1h-6.42l2-5.39c7.35.65,9.08-2,12.57-7.73l-9.28-.06,1.95-5c10,.46,12.65-2,15.16-7.7l-11.67-.41,2.53-5.58c11.95.33,14.47,0,18.86-8.1l-14.85-.06,1.79-4.67c13.52.58,17.18-1.86,21-8.62"/><path class="cls-1" d="M219.47,76.31l.1-.26c.42-1,.4-1.47.3-1.64s-.58-.38-1.31-.57a4.8,4.8,0,0,0-.67-.12l-.4-.06-.13-.29a3.16,3.16,0,0,0-.46-.43l-.56-.2-.13-.06.72-.55a5.72,5.72,0,0,1,1.74-.78l.07-.17.28.11a5.22,5.22,0,0,0,1.8-3.54,1.87,1.87,0,0,0-1.63-.63,13.61,13.61,0,0,0-3.37.75,22.49,22.49,0,0,1-2.25.62l-.26-.12c-1.86-.89-1.93-.93-5.81-3a1.64,1.64,0,0,0-.62.78A2.11,2.11,0,0,0,207,68l.36.29,0,0h0l-.92.49c-.21.11-.26.14-.23.14h0l-.27.24a2.56,2.56,0,0,0,.23.53l.07.41a1.15,1.15,0,0,1-.38.85l-.11.44,0,0h0l-.57-.44c-.73-.59-.8-.65-1.35-1.16a3.43,3.43,0,0,0-.47,0,1.22,1.22,0,0,0-.91.35.93.93,0,0,0,0,.93l0,.22c-.13.55-.6,1.5-2.32,1.52h-.89a1.3,1.3,0,0,0-.62.14c0,1.16.5,1.25,1.74,1.45.46.07,1,.15,1.63.3a1,1,0,0,1,.34-.06,1.77,1.77,0,0,1,.72.22l.92.37.33.09.15.07-1.12.55a3.32,3.32,0,0,0-1.13.8,2.4,2.4,0,0,1-.51,1l0,.26-.47-.11-2.49-.63-1.28-.34c-2.28-.59-5.11-1.34-7.77-1.8a11.84,11.84,0,0,0-1.85-.45l-1.26-.15-.06.36a15.46,15.46,0,0,0,1.36,1l.08.21a5.19,5.19,0,0,0,2.34,2.74c.91.15,1.87.26,3,.39,3.32.39,6.75.78,9.45,2.8l.7.37h.21l-1,.5a3.71,3.71,0,0,0-.79.54l-.31-.06a39.31,39.31,0,0,1-4.35-1.07,4.34,4.34,0,0,0-2.32-1,4.21,4.21,0,0,0-1.93.75l-.14.07,0,0-.09,0-.32-.13a5.39,5.39,0,0,0-1.33-.27c-.89-.31-1.8-.61-2.78-.93a33.08,33.08,0,0,1-8-3.41,11.8,11.8,0,0,1-1.55-1.58c-.12-.15-.21-.24-.28-.24h0l-.23-.29a3.06,3.06,0,0,0-1,.84c-.51,1.57.91,5.32,2.19,6.41a12.92,12.92,0,0,0,2.86.77,10,10,0,0,1,5.07,2l.45.11,0,0h0l-.43.57a13.9,13.9,0,0,1-1.89,2l-.33.28a3.69,3.69,0,0,0-.57.54l-.32,0a3.93,3.93,0,0,1-.73.07,6.74,6.74,0,0,1-3.23-1.11,3.63,3.63,0,0,0-1-.44l-.17.32a23,23,0,0,0,5.38,6.17l.19.32a1.75,1.75,0,0,0,.87.23h.05c1.67,0,3.49-2.34,4.82-4,.29-.37.56-.7.86-1l.33-.25c1.27-.93,1.36-1,1.31-1l.31.09A11.29,11.29,0,0,1,196,89.41a2.92,2.92,0,0,0,1.92-2.53l-.41-.37c-.6-.56-1.19-1.11-1.81-1.65l-.32-.07.21-.51a3.92,3.92,0,0,1,1-1.3l0-.2.43.1c1.79.4,3.4.9,5.37,1.51l1.73.56.42.32a4.51,4.51,0,0,0,2.82,1.27,1.69,1.69,0,0,0,.63-.11,10.4,10.4,0,0,0,2.09-2.66h0a.43.43,0,0,1,0-.07c-.33-.48-.48-.62-.54-.62l.31-.37a1.76,1.76,0,0,1,.51-.4c2.92-.92,6.08-2.07,8.4-2.9,1.4-.88,1.55-1,1.05-2.27-.09-.22-.19-.48-.36-.83M208.12,78l.47-.43c.65-.6.94-.89,1-1.18,0-.11-.17-.26-.46-.47l-.15,0a2.32,2.32,0,0,1-.31,0,1.27,1.27,0,0,1-1-.47l-.22-.16,0-.25.19-.6-.11,0,.64-.21a11.68,11.68,0,0,0,2.49-.91l.16-.28.41.35a6.19,6.19,0,0,1,2.17,3.47l-.2.25A5.27,5.27,0,0,1,209,78.77l-.39.1-.21-.63-.28-.18Z"/><path class="cls-1" d="M195.73,72.92a3,3,0,0,1-1.8-.59c-.35-1.38.68-2.87,1.43-4,.26-.37.46-.66.61-.91l.12-.32.25-.48c.3-.58.6-1.16.88-1.81.11-.34.19-.66.27-1,.46-1.8.81-2.94,1.71-3.26.71.11,1.06.22,1.23.47s.11.63,0,1.32l-.12.25a3.44,3.44,0,0,1,.18.85,10.71,10.71,0,0,1,.14,3.18l0,.41a6.56,6.56,0,0,1-.28,1.06,8.26,8.26,0,0,1-1.83,3.6l-.38.36-.26.15a3.8,3.8,0,0,1-2,.65Z"/><path class="cls-1" d="M195.73,72.87h.06a3.88,3.88,0,0,0,2-.65l.24-.15.39-.35a8.22,8.22,0,0,0,1.8-3.57,5.68,5.68,0,0,0,.29-1.06l0-.4a10.67,10.67,0,0,0-.14-3.17c0-.31-.08-.62-.13-.9h-.05l.12-.23c.13-.65.2-1,0-1.27s-.49-.34-1.16-.46c-.87.32-1.21,1.41-1.63,3.11-.1.35-.19.71-.31,1.09-.29.66-.58,1.23-.88,1.82l-.26.48-.12.32c-.15.26-.35.55-.6.91-.75,1.08-1.78,2.56-1.46,3.88a3,3,0,0,0,1.77.59"/><path class="cls-1" d="M189.33,71.28a3.17,3.17,0,0,1-1.46-.64c-1-2.22,2.53-4.72,2.94-5a1.41,1.41,0,0,1,1.09,1,4,4,0,0,1-.65,3.61c-1.06.73-1.5,1-1.9,1Z"/><path class="cls-1" d="M189.33,71.22h0c.38,0,.83-.31,1.85-1a3.94,3.94,0,0,0,.64-3.54,1.35,1.35,0,0,0-1-1c-.41.28-3.87,2.76-2.94,4.9a3.14,3.14,0,0,0,1.42.63"/></g></g></svg>